PathFileType	4	(X/Y/Z)	C:\Users\Alexander Denk\OneDrive - Universitaet Duisburg-Essen\Dokumente\GitHub\artisynth_dissertation_models\src\artisynth\models\gait_model\Models\EP010DR1980_BE_3Gang01\Input\EP010DR1980_BE_3Gang01_positions.trc
DataRate	CameraRate	NumFrames	NumMarkers	Units	OrigDataRate	OrigDataStartFrame	OrigNumFrames
100	100	4	41	m	100	38	103
Frame#	Time	LFHD			RFHD			LBHD			RBHD			C7			T10			CLAV			STRN			RBAK			LSHO			LUPA			LELB			LFRM			LWRA			LWRB			LFIN			RSHO			RUPA			RELB			RFRM			RWRA			RWRB			RFIN			LASI			RASI			LPSI			RPSI			LTHI			LKNE			LTIB			LANK			LTOE			LBTO			LHEE			RKNE			RTIB			RANK			RTOE			RBTO			RHEE			RTHI			
		X1	Y1	Z1	X2	Y2	Z2	X3	Y3	Z3	X4	Y4	Z4	X5	Y5	Z5	X6	Y6	Z6	X7	Y7	Z7	X8	Y8	Z8	X9	Y9	Z9	X10	Y10	Z10	X11	Y11	Z11	X12	Y12	Z12	X13	Y13	Z13	X14	Y14	Z14	X15	Y15	Z15	X16	Y16	Z16	X17	Y17	Z17	X18	Y18	Z18	X19	Y19	Z19	X20	Y20	Z20	X21	Y21	Z21	X22	Y22	Z22	X23	Y23	Z23	X24	Y24	Z24	X25	Y25	Z25	X26	Y26	Z26	X27	Y27	Z27	X28	Y28	Z28	X29	Y29	Z29	X30	Y30	Z30	X31	Y31	Z31	X32	Y32	Z32	X33	Y33	Z33	X34	Y34	Z34	X35	Y35	Z35	X36	Y36	Z36	X37	Y37	Z37	X38	Y38	Z38	X39	Y39	Z39	X40	Y40	Z40	X41	Y41	Z41	X42	Y42	Z42	X43	Y43	Z43	

39	0.38	0.194185333251953	1.73281799316406	0.0247007287717334	0.322263336181641	1.73827905273437	0.0317970117307178	0.179227630615234	1.65916259765625	0.162174636242437	0.330386322021484	1.66316796875	0.164365859386968	0.253434478759766	1.55928308105469	0.216613967297124	0.227425247192383	1.28185375976562	0.290775481579351	0.253985061645508	1.42299536132812	0.0744657434201709	0.244795455932617	1.29032238769531	0.0559493859982959	0.395769195556641	1.45443395996094	0.257103225109624	0.0595106048583984	1.51596118164063	0.140163131115483	0.0122488603591919	1.37190063476563	0.128602004406499	-0.0220532264709473	1.17816809082031	0.106319198010015	0.00326271939277649	0.945709045410156	0.028258986828374	0.0536427764892578	0.917064758300781	0.0190277551389209	-0.00704871892929077	0.903047912597656	0.0648784021115771	0.0233000030517578	0.841755859375	-0.0308597265505323	0.446646118164063	1.50671130371094	0.159027510998296	0.513461608886719	1.24213806152344	0.177813674328374	0.528292907714844	1.14709399414063	0.172606124279546	0.509223968505859	0.928186706542969	0.111869765636968	0.457498901367188	0.894526062011719	0.0717962487912646	0.498108551025391	0.874678527832031	0.137248946545171	0.496168579101563	0.799458557128906	0.0422660058713428	0.104800628662109	1.05071032714844	0.0993365319943896	0.367052947998047	1.056048828125	0.0918017724729053	0.20971012878418	1.09953601074219	0.269538787243413	0.277325531005859	1.09581518554687	0.268804412243413	0.0904949417114258	0.674684936523438	0.193345351574468	0.114210388183594	0.518645324707031	0.242316909191655	0.115207946777344	0.362640686035156	0.282201201794194	0.165194030761719	0.0726016845703125	0.36277354371314	0.17428369140625	0.0369971199035645	0.210498214123296	0.195912734985352	0.0331496353149414	0.153719527599858	0.198632415771484	0.0424942359924316	0.431565444347905	0.3898759765625	0.525122009277344	0.00791776978735836	0.400674011230469	0.362284362792969	0.00374275147681147	0.351656555175781	0.0773518600463868	-0.0280767675661573	0.384264495849609	0.0784774932861329	-0.181983566882564	0.379302978515625	0.0926719589233399	-0.239103378894282	0.294771545410156	0.0323152923583985	0.0114147180295459	0.406594818115234	0.682427429199219	0.0301236718869677
40	0.39	0.195542327880859	1.73069372558594	0.0249673403571635	0.323595062255859	1.73600122070313	0.0320933779548198	0.180439071655273	1.65693542480469	0.162360986597398	0.331577484130859	1.66076867675781	0.164620172388414	0.254550857543945	1.55701403808594	0.216738641626695	0.228301498413086	1.27952868652344	0.290787454492906	0.25502165222168	1.42067846679688	0.0745606020759135	0.24572785949707	1.28799133300781	0.0559656008552104	0.396726776123047	1.45202746582031	0.25724050319896	0.0606148529052734	1.51385437011719	0.140187982447007	0.0131471910476685	1.36991467285156	0.128176843530992	-0.0214243755340576	1.17642150878906	0.104999261743882	0.0043552041053772	0.944626403808594	0.0252877138923198	0.0547862396240234	0.916162841796875	0.0159959963630228	-0.00605406522750854	0.901696166992187	0.0615481509040385	0.0247358722686768	0.841299926757813	-0.0346994382072897	0.447721466064453	1.50430859375	0.159160852320054	0.514187377929687	1.23966284179688	0.178317712671617	0.528916687011719	1.14458520507813	0.173184594995835	0.509754333496094	0.925566833496094	0.11294704616771	0.458060455322266	0.891859741210937	0.0728857668708354	0.498601837158203	0.872130859375	0.13842556179271	0.496627075195313	0.796647644042969	0.0436663760016948	0.105542251586914	1.04828527832031	0.0990853518317729	0.367820556640625	1.05363623046875	0.0914920290778666	0.210660629272461	1.0970634765625	0.269429559595445	0.278168426513672	1.09342150878906	0.268693811304429	0.0907448043823242	0.6733505859375	0.197450769312242	0.114648071289063	0.517880249023438	0.248690362818101	0.115557159423828	0.362444396972656	0.291003656275132	0.165410095214844	0.0736115493774414	0.375867929346421	0.174336502075195	0.0369143562316895	0.224110101587632	0.195989990234375	0.0330733871459961	0.167301172144273	0.198719940185547	0.0442160148620606	0.444954736597398	0.390480682373047	0.521622192382812	0.00951162136302286	0.401865783691406	0.359511169433594	-0.00398026096119597	0.353533416748047	0.0764820251464844	-0.0546088620354147	0.383360260009766	0.0875110092163086	-0.208989782445571	0.377323303222656	0.105243019104004	-0.264801672094008	0.297645904541016	0.0286045303344727	-0.0173235837151022	0.408889770507812	0.678715576171875	0.033639337427476
41	0.4	0.196943542480469	1.72853930664062	0.025226963417203	0.324974578857422	1.73370300292969	0.0323572124406404	0.181730010986328	1.65467260742187	0.162538090126187	0.332845520019531	1.658345703125	0.164837894813687	0.255774291992187	1.55470581054687	0.216840580360562	0.229295761108398	1.27713684082031	0.290716480629117	0.256133941650391	1.41834973144531	0.0745910991593904	0.246745422363281	1.28564709472656	0.0558853191300935	0.397804931640625	1.449560546875	0.257301090614469	0.0618040428161621	1.51168518066406	0.140247593300015	0.0141481971740723	1.3678583984375	0.127811924354703	-0.0206934299468994	1.17461096191406	0.103739658729703	0.00543973064422607	0.943447204589844	0.0224615825578279	0.0559045753479004	0.915145263671875	0.0130850566789216	-0.0050521821975708	0.900266845703125	0.0583887370988435	0.0260751399993896	0.840717590332031	-0.0383660541609222	0.448897094726563	1.50186376953125	0.159222324745328	0.514994018554688	1.23713647460937	0.178665958778531	0.529611755371094	1.14203015136719	0.173602421180875	0.510337249755859	0.922898864746094	0.113883121864468	0.458659057617188	0.88914111328125	0.0738602336808747	0.499160980224609	0.869533508300781	0.139470096962125	0.497103881835938	0.79377392578125	0.0449479717179841	0.10634188079834	1.04585266113281	0.098684757606656	0.368646667480469	1.05115087890625	0.0910228008195466	0.211687423706055	1.09452392578125	0.269180820839078	0.279082763671875	1.09096606445312	0.268446842567593	0.0909509506225586	0.672041015625	0.201289066688687	0.115033538818359	0.517149291992188	0.254721012489468	0.115830619812012	0.362299835205078	0.299533832924039	0.165584228515625	0.0748306121826172	0.388903156654507	0.17438493347168	0.0368384170532227	0.237724644081265	0.196082473754883	0.0329871711730957	0.180897922889859	0.198774826049805	0.0462530784606934	0.458302875892789	0.391112976074219	0.51807666015625	0.0110105327531403	0.402991943359375	0.357250152587891	-0.0110895038679535	0.355185089111328	0.076801139831543	-0.0788207660749847	0.382100860595703	0.0971988983154297	-0.233275539024203	0.374987731933594	0.118216194152832	-0.287629298789828	0.300266448974609	0.0262564659118653	-0.0437108417585784	0.411344055175781	0.674827453613281	0.0369607280656403
42	0.41	0.198396484375	1.72639099121094	0.0254777668971643	0.326410552978516	1.73142224121094	0.0325864094752893	0.183106811523437	1.65241149902344	0.162705000783883	0.334197662353516	1.65593713378906	0.16501917925068	0.257107086181641	1.55239489746094	0.21692005815693	0.230401565551758	1.27471716308594	0.290563246633492	0.257329376220703	1.41604699707031	0.0745583333034143	0.24785417175293	1.28333056640625	0.0557075337428674	0.399003021240234	1.44706750488281	0.257291243459664	0.0630825157165527	1.50949291992187	0.140336684133492	0.0152576694488525	1.36577014160156	0.127505751516305	-0.0198533248901367	1.172771484375	0.102547194387399	0.00651447296142578	0.942198364257813	0.0198013142604455	0.0569948501586914	0.914036743164062	0.010315596487008	-0.00404451894760132	0.898788879394531	0.0554246052760705	0.0273089656829834	0.84002880859375	-0.0418305827122109	0.450177093505859	1.49940991210938	0.159220747854196	0.51588330078125	1.2345908203125	0.178863234426461	0.530379577636719	1.13946105957031	0.173862624074899	0.5109765625	0.920216674804687	0.114674788381539	0.459300506591797	0.886405212402344	0.0747130269069299	0.499788757324219	0.866919982910156	0.140377272512399	0.497609252929687	0.790874206542969	0.046103194143258	0.107195259094238	1.04344409179688	0.0981356953639611	0.369529266357422	1.04865148925781	0.0903968342799767	0.212780349731445	1.091958984375	0.268789046194039	0.280060516357422	1.08849072265625	0.268064314748727	0.0911315765380859	0.670768371582031	0.204826491262399	0.115358261108398	0.516460205078125	0.260366560842477	0.116015182495117	0.362218078613281	0.307754332448922	0.165703399658203	0.0762851867675781	0.401864516164742	0.174426208496094	0.0367762145996094	0.251329787160836	0.196188064575195	0.0328867454528809	0.194496565725289	0.198787872314453	0.0486367683410645	0.47159754076191	0.391755065917969	0.514605712890625	0.0122392415065392	0.404004486083984	0.35540673828125	-0.0175112467747108	0.356514678955078	0.0778798599243165	-0.100115799997367	0.380589904785156	0.106759788513184	-0.25434199628643	0.372477172851563	0.130723419189453	-0.307188737009086	0.302451477050781	0.0249527492523194	-0.0670614176731483	0.41380029296875	0.67093994140625	0.0398259114284142
